# File created by Blade
# Date/Time:  Wed Jan 21 15:15:22 2015
# Frame Rate: 120.000 fps
#------------------------------------------------------
:FULLY-SPECIFIED
:DEGREES
892
root 22.343925 38.950545 -19.179050 183.602802 -40.294515 -93.509457
Spine -35.909288 -9.176460 -2.090589
Head -24.731098 34.484901 40.175264
LeftShoulder -8.961708 -26.740649 13.967266
LeftArm 4.316115 12.674332 -39.933672
LeftForeArm -3.805295 -0.000000 4.674491
LeftHand -0.455732 -0.000000 -0.673429
LeftHandThumb1 -26.253704 0.000000 33.147579
RightShoulder -27.537750 -19.765244 13.680107
RightArm -11.057051 19.386629 48.099406
RightForeArm -46.091299 -0.000000 6.969085
RightHand -1.228185 -0.000000 24.534868
RightHandThumb1 -24.326973 -0.000000 -32.862282
LeftUpLeg -102.208753 42.080579 -18.220424
LeftLeg -7.134313 -0.000000 0.000000
LeftFoot -10.952749 15.344750 -17.428832
LeftToeBase 39.366438 -0.000000 -0.000000
RightUpLeg 0.144989 3.342226 -18.698881
RightLeg 127.423068 -0.000000 -0.000000
RightFoot 27.652298 -34.055963 -10.430272
RightToeBase 22.371794 -0.000000 -0.000000
893
root 22.344295 38.955836 -19.178724 183.560748 -40.195302 -93.466898
Spine -35.947083 -9.131396 -2.089084
Head -24.709178 34.431152 40.170704
LeftShoulder -8.996060 -26.714818 13.941247
LeftArm 4.091512 12.711193 -39.900144
LeftForeArm -3.967050 0.000000 4.732006
LeftHand -0.492772 -0.000000 -0.709090
LeftHandThumb1 -26.253704 0.000000 33.147579
RightShoulder -27.534861 -19.851138 13.668894
RightArm -11.018913 19.456431 48.138638
RightForeArm -46.046116 0.000000 6.953352
RightHand -1.305054 -0.000000 24.533546
RightHandThumb1 -24.326973 -0.000000 -32.862282
LeftUpLeg -102.132618 42.224062 -18.046478
LeftLeg -7.117521 -0.000000 0.000000
LeftFoot -11.024325 15.433963 -17.500259
LeftToeBase 39.418965 -0.000000 -0.000000
RightUpLeg 0.130277 3.355969 -18.762578
RightLeg 127.454169 -0.000000 -0.000000
RightFoot 27.838758 -33.883792 -10.567910
RightToeBase 22.353110 -0.000000 -0.000000
894
root 22.344900 38.962131 -19.179023 183.502761 -40.114244 -93.398053
Spine -35.998000 -9.088044 -2.060790
Head -24.653520 34.357045 40.176924
LeftShoulder -9.057446 -26.693978 13.944998
LeftArm 3.951203 12.726844 -39.930180
LeftForeArm -4.023021 -0.000000 4.572305
LeftHand -0.560586 -0.000000 -0.776498
LeftHandThumb1 -26.253704 0.000000 33.147579
RightShoulder -27.526241 -19.930054 13.635297
RightArm -11.012215 19.544734 48.176041
RightForeArm -46.028660 -0.000000 6.916436
RightHand -1.354534 -0.000000 24.522446
RightHandThumb1 -24.326973 -0.000000 -32.862282
LeftUpLeg -102.033167 42.362781 -17.794985
LeftLeg -7.073364 -0.000000 0.000000
LeftFoot -11.153203 15.589089 -17.675542
LeftToeBase 39.561139 -0.000000 -0.000000
RightUpLeg 0.104608 3.353667 -18.779319
RightLeg 127.473974 -0.000000 -0.000000
RightFoot 28.051030 -33.799901 -10.617290
RightToeBase 22.636035 -0.000000 -0.000000
895
root 22.339863 38.967319 -19.183153 183.474775 -39.973928 -93.417941
Spine -36.046700 -8.998458 -2.148391
Head -24.575261 34.254405 40.258282
LeftShoulder -9.137865 -26.604896 13.979613
LeftArm 3.849898 12.750939 -39.956788
LeftForeArm -4.215733 0.000000 4.486762
LeftHand -0.567235 0.000000 -0.618889
LeftHandThumb1 -26.253704 0.000000 33.147579
RightShoulder -27.545508 -20.043960 13.661970
RightArm -10.996729 19.636143 48.238206
RightForeArm -46.013532 -0.000000 6.882997
RightHand -1.313636 -0.000000 24.414697
RightHandThumb1 -24.326973 -0.000000 -32.862282
LeftUpLeg -102.021212 42.547396 -17.779806
LeftLeg -7.037960 -0.000000 0.000000
LeftFoot -11.292053 15.609173 -17.768821
LeftToeBase 39.822827 -0.000000 -0.000000
RightUpLeg 0.071863 3.404049 -18.840018
RightLeg 127.498977 -0.000000 -0.000000
RightFoot 28.322500 -33.706714 -10.767221
RightToeBase 22.753858 -0.000000 -0.000000
896
root 22.340472 38.970903 -19.178311 183.436190 -39.960371 -93.397874
Spine -36.084124 -8.986754 -2.149340
Head -24.548213 34.205205 40.219211
LeftShoulder -9.208286 -26.558585 13.971455
LeftArm 3.736773 12.653624 -40.030518
LeftForeArm -4.300760 -0.000000 4.344854
LeftHand -0.524420 0.000000 -0.716914
LeftHandThumb1 -26.253704 0.000000 33.147579
RightShoulder -27.528016 -20.050641 13.583562
RightArm -11.080630 19.624285 48.294170
RightForeArm -45.911849 0.000000 6.875845
RightHand -1.298328 0.000000 24.309103
RightHandThumb1 -24.326973 -0.000000 -32.862282
LeftUpLeg -102.107044 42.548664 -17.858140
LeftLeg -6.967191 -0.000000 0.000000
LeftFoot -11.368531 15.509796 -17.861323
LeftToeBase 40.127868 -0.000000 -0.000000
RightUpLeg 0.065083 3.333978 -18.874411
RightLeg 127.510217 -0.000000 -0.000000
RightFoot 28.575821 -33.644912 -10.922308
RightToeBase 22.742315 -0.000000 -0.000000
897
root 22.337871 38.975681 -19.176119 183.401521 -39.931678 -93.383458
Spine -36.147041 -8.968338 -2.161984
Head -24.460677 34.194710 40.238819
LeftShoulder -9.284852 -26.573606 14.020724
LeftArm 3.492775 12.503004 -40.181487
LeftForeArm -4.149950 -0.000000 4.270675
LeftHand -0.796373 -0.000000 -0.752471
LeftHandThumb1 -26.253704 0.000000 33.147579
RightShoulder -27.516013 -20.089270 13.549087
RightArm -11.165457 19.717908 48.327403
RightForeArm -45.884021 0.000000 6.904895
RightHand -1.311883 0.000000 24.260907
RightHandThumb1 -24.326973 -0.000000 -32.862282
LeftUpLeg -102.172021 42.578677 -17.927250
LeftLeg -6.918428 -0.000000 0.000000
LeftFoot -11.396296 15.392361 -17.942359
LeftToeBase 40.335426 -0.000000 -0.000000
RightUpLeg 0.036548 3.269233 -18.887234
RightLeg 127.517533 -0.000000 -0.000000
RightFoot 28.771453 -33.639147 -11.053674
RightToeBase 23.185120 -0.000000 -0.000000
898
root 22.331170 38.981486 -19.179177 183.371676 -39.818753 -93.439148
Spine -36.194078 -8.864110 -2.292040
Head -24.350841 34.139228 40.333376
LeftShoulder -9.315092 -26.617366 14.113315
LeftArm 3.174593 12.469028 -40.342229
LeftForeArm -4.182661 -0.000000 4.259829
LeftHand -0.569806 0.000000 -0.677489
LeftHandThumb1 -26.253704 0.000000 33.147579
RightShoulder -27.498943 -20.098216 13.577655
RightArm -11.342861 19.836673 48.325210
RightForeArm -45.854366 -0.000000 6.968743
RightHand -1.350653 -0.000000 24.244233
RightHandThumb1 -24.326973 -0.000000 -32.862282
LeftUpLeg -102.145196 42.734280 -17.988369
LeftLeg -6.917380 -0.000000 0.000000
LeftFoot -11.434760 15.293850 -17.987940
LeftToeBase 40.476533 -0.000000 -0.000000
RightUpLeg -0.010330 3.279667 -18.935544
RightLeg 127.545837 -0.000000 -0.000000
RightFoot 28.914300 -33.708796 -10.996825
RightToeBase 23.056736 -0.000000 -0.000000
899
root 22.327162 38.986735 -19.177003 183.329340 -39.801672 -93.454925
Spine -36.246156 -8.846842 -2.320629
Head -24.249846 34.090979 40.344339
LeftShoulder -9.383323 -26.549658 14.148022
LeftArm 3.007180 12.435056 -40.496837
LeftForeArm -4.300461 -0.000000 4.085563
LeftHand -0.488783 -0.000000 -0.711305
LeftHandThumb1 -26.253704 0.000000 33.147579
RightShoulder -27.493980 -20.097722 13.560927
RightArm -11.439977 19.956393 48.334514
RightForeArm -45.865877 0.000000 6.990710
RightHand -1.394670 -0.000000 24.423630
RightHandThumb1 -24.326973 -0.000000 -32.862282
LeftUpLeg -102.088921 42.783858 -17.962020
LeftLeg -6.890753 -0.000000 0.000000
LeftFoot -11.469730 15.218902 -18.093310
LeftToeBase 40.812769 -0.000000 -0.000000
RightUpLeg -0.042104 3.197053 -18.942932
RightLeg 127.583732 -0.000000 -0.000000
RightFoot 28.945735 -33.704180 -10.999250
RightToeBase 23.021680 -0.000000 -0.000000
